<?xml version="1.0" encoding="UTF-8"?> <svg xmlns="http://www.w3.org/2000/svg" width="148" height="79" viewBox="0 0 148 79" fill="none"><path fill-rule="evenodd" clip-rule="evenodd" d="M107.369 5.59818V44.4561H110.662V18.7704H117.412L117.585 44.4561H130.749V14.5124H120.705V8.83185L147.544 8.65726V0C147.544 0 120.57 3.68247 107.369 5.59818ZM110.64 14.0459L110.639 7.90331H117.248V14.0459H110.64Z" fill="#369494"></path><path d="M137.665 44.1986L147.544 37.3728V14.6796H137.665V44.1986Z" fill="#369494"></path><path d="M0.211462 37.2426C0.211462 39.8859 0.105731 42.7406 0 44.4852H5.55087L5.86807 40.626H5.9738C7.82409 43.7979 10.7846 45.0667 14.1151 45.0667C19.9303 45.0667 25.7983 40.4674 25.7983 31.2159C25.8512 23.3918 21.3576 18.1582 15.0667 18.1582C11.2075 18.1582 8.40561 19.797 6.81964 22.2817H6.71391V6.95068H0.211462V37.2426ZM6.71391 29.6828C6.71391 29.0484 6.81965 28.4669 6.92538 27.9911C7.61263 25.1364 10.0444 23.2332 12.6877 23.2332C17.0227 23.2332 19.1902 26.9338 19.1902 31.4803C19.1902 36.7139 16.7055 39.9387 12.6348 39.9387C9.83298 39.9387 7.55976 38.0356 6.87251 35.3923C6.76678 34.9165 6.71391 34.3879 6.71391 33.8592V29.6828Z" fill="#1C4E63"></path><path d="M50.2201 18.7397H43.7177V34.2821C43.7177 35.0222 43.6119 35.7624 43.3476 36.291C42.7132 37.9827 41.0215 39.7801 38.3783 39.7801C34.942 39.7801 33.5675 37.0311 33.5675 32.749V18.7397H27.065V33.8592C27.065 42.2648 31.3472 45.0667 35.9993 45.0667C40.6515 45.0667 43.189 42.4234 44.2992 40.626H44.4578L44.775 44.4852H50.4316C50.3259 42.3705 50.2201 39.833 50.2201 36.7668V18.7397Z" fill="#1C4E63"></path><path d="M70.5382 6.95068V21.4887H70.4325C69.2694 19.5855 66.7319 18.1582 63.1899 18.1582C57.0047 18.1582 51.6124 23.2861 51.6652 31.9032C51.6652 39.833 56.5289 45.0667 62.7141 45.0667C66.4147 45.0667 69.5338 43.2693 71.0669 40.4145H71.1726L71.4898 44.4852H77.2521C77.1464 42.7406 77.0407 39.8859 77.0407 37.2426V6.95068H70.5382ZM70.5382 33.3305C70.5382 34.0178 70.4854 34.6522 70.3268 35.2337C69.6924 38.0356 67.3663 39.833 64.723 39.833C60.5995 39.833 58.2734 36.3967 58.2734 31.6389C58.2734 26.881 60.5995 23.1804 64.7759 23.1804C67.7363 23.1804 69.7981 25.2421 70.3796 27.7268C70.4854 28.2555 70.5382 28.9427 70.5382 29.4714V33.3305Z" fill="#1C4E63"></path><path d="M103.371 26.1408C103.371 22.5989 103.476 20.4842 103.582 18.7397H97.9254L97.6611 22.1759H97.5554C96.3395 20.0613 94.0662 18.1582 90.1013 18.1582C83.9161 18.1582 78.4181 23.2861 78.4181 31.7446C78.4181 39.04 82.9645 44.3266 89.3612 44.3266C92.7975 44.3266 95.3879 42.7935 96.8681 40.5203H96.9738V42.7406C96.9738 48.2915 93.8019 50.5118 89.5727 50.5118C86.4536 50.5118 83.7046 49.5074 82.0658 48.5558L80.6384 53.4723C82.8588 54.7939 86.3479 55.534 89.6255 55.534C93.1675 55.534 96.921 54.7939 99.5642 52.415C102.26 49.9832 103.371 46.124 103.371 40.7317V26.1408ZM96.8681 33.2248C96.8681 33.9649 96.8152 34.8636 96.6038 35.498C95.8637 37.877 93.749 39.4629 91.3172 39.4629C87.2466 39.4629 85.0262 35.921 85.0262 31.5331C85.0262 26.2994 87.7224 23.1275 91.3701 23.1275C94.1191 23.1275 95.9694 24.9249 96.6566 27.3039C96.8152 27.8325 96.8681 28.4141 96.8681 29.0484V33.2248Z" fill="#1C4E63"></path><path fill-rule="evenodd" clip-rule="evenodd" d="M148 62.1456H0V61.1196H148V62.1456Z" fill="#1C4E63"></path><path d="M0.13269 67.3496V73.7391C0.13269 77.2483 1.80455 78.6884 4.38683 78.6884C7.06843 78.6884 8.83961 77.1655 8.83961 73.7225V67.3496H6.80358V73.8549C6.80358 76.0399 5.92627 77.0497 4.45304 77.0497C3.07914 77.0497 2.16872 76.0399 2.16872 73.8549V67.3496H0.13269Z" fill="#1C4E63"></path><path d="M13.5409 78.5063V74.517C13.5409 72.6797 13.5078 71.2064 13.4251 69.7663L13.4913 69.7498C14.0375 71.0078 14.7659 72.3651 15.4776 73.5901L18.391 78.5063H20.5098V67.3496H18.6227V71.2395C18.6227 72.9445 18.6558 74.3846 18.8048 75.8744H18.7717C18.2586 74.666 17.5964 73.3749 16.8681 72.1334L13.9879 67.3496H11.6539V78.5063H13.5409Z" fill="#1C4E63"></path><path d="M23.3533 67.3496V78.5063H25.3893V67.3496H23.3533Z" fill="#1C4E63"></path><path d="M30.3498 78.5063H32.3858V69.0545H35.5971V67.3496H27.1716V69.0545H30.3498V78.5063Z" fill="#1C4E63"></path><path d="M43.6484 71.9017H39.4439V69.0214H43.8967V67.3496H37.4079V78.5063H44.145V76.8345H39.4439V73.557H43.6484V71.9017Z" fill="#1C4E63"></path><path d="M46.4235 78.4732C47.1022 78.556 47.996 78.6222 49.1713 78.6222C51.3397 78.6222 53.1109 78.1091 54.22 77.0993C55.2794 76.1392 55.9581 74.666 55.9581 72.6631C55.9581 70.7761 55.2959 69.4353 54.2034 68.5579C53.1771 67.6972 51.7536 67.2668 49.6679 67.2668C48.4595 67.2668 47.3339 67.3661 46.4235 67.4985V78.4732ZM48.4595 68.9718C48.7575 68.9056 49.2044 68.8559 49.85 68.8559C52.3991 68.8559 53.8227 70.2795 53.8062 72.7293C53.8062 75.5599 52.2336 77.0331 49.5851 77.0166C49.1713 77.0166 48.7409 77.0166 48.4595 76.9669V68.9718Z" fill="#1C4E63"></path><path d="M61.6465 77.9766C62.259 78.3574 63.4839 78.6884 64.6757 78.6884C67.5394 78.6884 68.8967 77.1324 68.8967 75.3281C68.8967 73.7225 67.9698 72.7459 66.0331 72.0175C64.5433 71.4382 63.8977 71.0409 63.8977 70.1801C63.8977 69.518 64.444 68.8393 65.7351 68.8393C66.7779 68.8393 67.5559 69.1539 67.9698 69.369L68.4498 67.7303C67.8705 67.4323 66.9931 67.1675 65.7848 67.1675C63.3515 67.1675 61.8286 68.5414 61.8286 70.3788C61.8286 71.9844 63.0038 72.9611 64.8578 73.6232C66.2648 74.1363 66.8276 74.6329 66.8276 75.4771C66.8276 76.3875 66.0993 77 64.8081 77C63.7653 77 62.7556 76.6689 62.11 76.2882L61.6465 77.9766Z" fill="#1C4E63"></path><path d="M73.3587 78.5063H75.3947V69.0545H78.606V67.3496H70.1805V69.0545H73.3587V78.5063Z" fill="#1C4E63"></path><path d="M84.9649 75.3447L85.9746 78.5063H88.1762L84.551 67.3496H81.9522L78.3767 78.5063H80.479L81.4391 75.3447H84.9649ZM81.7701 73.8053L82.6309 71.0575C82.813 70.3953 82.995 69.6173 83.1606 68.9718H83.1937C83.3592 69.6173 83.5413 70.3788 83.7565 71.0575L84.6338 73.8053H81.7701Z" fill="#1C4E63"></path><path d="M91.0181 78.5063H93.0541V69.0545H96.2654V67.3496H87.8399V69.0545H91.0181V78.5063Z" fill="#1C4E63"></path><path d="M104.317 71.9017H100.112V69.0214H104.565V67.3496H98.0762V78.5063H104.813V76.8345H100.112V73.557H104.317V71.9017Z" fill="#1C4E63"></path><path d="M106.595 77.9766C107.208 78.3574 108.433 78.6884 109.624 78.6884C112.488 78.6884 113.845 77.1324 113.845 75.3281C113.845 73.7225 112.918 72.7459 110.982 72.0175C109.492 71.4382 108.846 71.0409 108.846 70.1801C108.846 69.518 109.393 68.8393 110.684 68.8393C111.727 68.8393 112.505 69.1539 112.918 69.369L113.399 67.7303C112.819 67.4323 111.942 67.1675 110.733 67.1675C108.3 67.1675 106.777 68.5414 106.777 70.3788C106.777 71.9844 107.953 72.9611 109.807 73.6232C111.214 74.1363 111.776 74.6329 111.776 75.4771C111.776 76.3875 111.048 77 109.757 77C108.714 77 107.704 76.6689 107.059 76.2882L106.595 77.9766Z" fill="#1C4E63"></path></svg> 